%TF.GenerationSoftware,KiCad,Pcbnew,9.0.0*%
%TF.CreationDate,2025-03-20T09:50:54+05:30*%
%TF.ProjectId,project - 2,70726f6a-6563-4742-902d-20322e6b6963,rev?*%
%TF.SameCoordinates,Original*%
%TF.FileFunction,Copper,L2,Bot*%
%TF.FilePolarity,Positive*%
%FSLAX46Y46*%
G04 Gerber Fmt 4.6, Leading zero omitted, Abs format (unit mm)*
G04 Created by KiCad (PCBNEW 9.0.0) date 2025-03-20 09:50:54*
%MOMM*%
%LPD*%
G01*
G04 APERTURE LIST*
G04 Aperture macros list*
%AMRoundRect*
0 Rectangle with rounded corners*
0 $1 Rounding radius*
0 $2 $3 $4 $5 $6 $7 $8 $9 X,Y pos of 4 corners*
0 Add a 4 corners polygon primitive as box body*
4,1,4,$2,$3,$4,$5,$6,$7,$8,$9,$2,$3,0*
0 Add four circle primitives for the rounded corners*
1,1,$1+$1,$2,$3*
1,1,$1+$1,$4,$5*
1,1,$1+$1,$6,$7*
1,1,$1+$1,$8,$9*
0 Add four rect primitives between the rounded corners*
20,1,$1+$1,$2,$3,$4,$5,0*
20,1,$1+$1,$4,$5,$6,$7,0*
20,1,$1+$1,$6,$7,$8,$9,0*
20,1,$1+$1,$8,$9,$2,$3,0*%
G04 Aperture macros list end*
%TA.AperFunction,ComponentPad*%
%ADD10RoundRect,0.250000X-0.750000X-1.550000X0.750000X-1.550000X0.750000X1.550000X-0.750000X1.550000X0*%
%TD*%
%TA.AperFunction,ComponentPad*%
%ADD11O,2.000000X3.600000*%
%TD*%
%TA.AperFunction,ComponentPad*%
%ADD12C,1.440000*%
%TD*%
%TA.AperFunction,ViaPad*%
%ADD13C,0.600000*%
%TD*%
%TA.AperFunction,Conductor*%
%ADD14C,0.200000*%
%TD*%
G04 APERTURE END LIST*
D10*
%TO.P,J2,1,Pin_1*%
%TO.N,Net-(J1-Pin_1)*%
X114250000Y-93222500D03*
D11*
%TO.P,J2,2,Pin_2*%
%TO.N,GND*%
X121750000Y-93222500D03*
%TD*%
D10*
%TO.P,J1,1,Pin_1*%
%TO.N,Net-(J1-Pin_1)*%
X114000000Y-62000000D03*
D11*
%TO.P,J1,2,Pin_2*%
%TO.N,Net-(J1-Pin_2)*%
X121500000Y-62000000D03*
%TD*%
D12*
%TO.P,RV1,1,1*%
%TO.N,Net-(D2-A)*%
X158580000Y-64000000D03*
%TO.P,RV1,2,2*%
%TO.N,Net-(U1-THR)*%
X156040000Y-64000000D03*
%TO.P,RV1,3,3*%
%TO.N,Net-(D1-K)*%
X153500000Y-64000000D03*
%TD*%
D13*
%TO.N,Net-(J1-Pin_1)*%
X159000000Y-103500000D03*
X159000000Y-100500000D03*
%TO.N,Net-(U1-THR)*%
X153000000Y-114000000D03*
X151500000Y-106500000D03*
X162500000Y-107000000D03*
X174500000Y-91500000D03*
X174000000Y-87000000D03*
X171500000Y-85500000D03*
%TO.N,Net-(J1-Pin_2)*%
X143000000Y-85500000D03*
X145000000Y-85000000D03*
%TO.N,Net-(Q1-G)*%
X140000000Y-82000000D03*
X136500000Y-82000000D03*
%TO.N,GND*%
X165000000Y-102500000D03*
X169500000Y-102000000D03*
X137500000Y-91500000D03*
X134500000Y-93000000D03*
%TD*%
D14*
%TO.N,Net-(J1-Pin_1)*%
X158500000Y-101000000D02*
X158500000Y-103000000D01*
X158500000Y-103000000D02*
X159000000Y-103500000D01*
X159000000Y-100500000D02*
X158500000Y-101000000D01*
%TO.N,Net-(U1-THR)*%
X151500000Y-112500000D02*
X153000000Y-114000000D01*
X151500000Y-106500000D02*
X151500000Y-112500000D01*
X162500000Y-106000000D02*
X162500000Y-107000000D01*
X160000000Y-103500000D02*
X162500000Y-106000000D01*
X172000000Y-91500000D02*
X160000000Y-103500000D01*
X174500000Y-91500000D02*
X172000000Y-91500000D01*
X173000000Y-87000000D02*
X174000000Y-87000000D01*
X171500000Y-85500000D02*
X173000000Y-87000000D01*
%TO.N,Net-(J1-Pin_2)*%
X143500000Y-85000000D02*
X143000000Y-85500000D01*
X145000000Y-85000000D02*
X143500000Y-85000000D01*
%TO.N,Net-(Q1-G)*%
X136500000Y-82000000D02*
X140000000Y-82000000D01*
%TO.N,GND*%
X166000000Y-102500000D02*
X165000000Y-102500000D01*
X169000000Y-102500000D02*
X165500000Y-102500000D01*
X165500000Y-102500000D02*
X166000000Y-102500000D01*
X169500000Y-102000000D02*
X169000000Y-102500000D01*
X137000000Y-92000000D02*
X137500000Y-91500000D01*
X134500000Y-93000000D02*
X136000000Y-93000000D01*
X136000000Y-93000000D02*
X137000000Y-92000000D01*
%TD*%
M02*
